PathFileType	4	(X/Y/Z)	Patient5_TMGait_0pt45_1_left_03.trc.trc
DataRate	CameraRate	NumFrames	NumMarkers	Units	OrigDataRate	OrigDataStartFrame	OrigNumFrames
58.091286307054	58.091286307054	4	32	mm	58.091286307054	36	       141
Frame#	Time	R.ASIS			L.ASIS			Chest			R.Shoulder			Neck			L.Shoulder			L.Elbow			L.Wrist			R.Elbow			R.Wrist			L.Thigh.Superior			L.Thigh.Lateral			L.Thigh.Inferior			L.Patella			L.Shank.Superior			L.Shank.Lateral			L.Shank.Inferior			L.Heel			L.Midfoot.Lateral			L.Midfoot.Superior			L.Toe			R.Thigh.Superior			R.Thigh.Lateral			R.Thigh.Inferior			R.Patella			R.Shank.Superior			R.Shank.Lateral			R.Shank.Inferior			R.Heel			R.Midfoot.Lateral			R.Midfoot.Superior			R.Toe			
		X1	Y1	Z1	X2	Y2	Z2	X3	Y3	Z3	X4	Y4	Z4	X5	Y5	Z5	X6	Y6	Z6	X7	Y7	Z7	X8	Y8	Z8	X9	Y9	Z9	X10	Y10	Z10	X11	Y11	Z11	X12	Y12	Z12	X13	Y13	Z13	X14	Y14	Z14	X15	Y15	Z15	X16	Y16	Z16	X17	Y17	Z17	X18	Y18	Z18	X19	Y19	Z19	X20	Y20	Z20	X21	Y21	Z21	X22	Y22	Z22	X23	Y23	Z23	X24	Y24	Z24	X25	Y25	Z25	X26	Y26	Z26	X27	Y27	Z27	X28	Y28	Z28	X29	Y29	Z29	X30	Y30	Z30	X31	Y31	Z31	X32	Y32	Z32	

36	3.982500000000	955.048405734809	974.493665115257	596.381191213184	981.845973885924	957.126236047686	360.095943026441	1050.909831094178	1432.237686985937	488.030339095174	937.646917737351	1500.424832039191	645.115921559325	924.152851488603	1554.747178371030	456.569385053856	1008.545010672894	1496.450975570744	285.055161191398	933.253586894307	1175.610560765608	158.816826891351	1049.465213283321	913.520182362273	167.516574297951	838.947381399979	1182.888878485315	779.683104630398	1043.903071266340	979.271773331298	749.330947899792	1035.195730910701	756.699967925500	350.077756696879	983.691781482606	674.256635495815	302.056193240353	1058.937236377128	633.534984287477	378.123191373028	1083.609234937856	517.374340675854	387.605095436477	1044.081758475265	406.612550880503	395.674178730061	998.469998099189	336.887575197812	308.045218476719	1022.049165250509	282.359929466793	396.652893183694	908.653945898392	49.533598535721	379.724137657289	997.771644331921	28.153989359337	318.807188491642	1093.774345092803	89.748122255898	365.909529773985	1202.406311809323	45.801333550420	367.460340068517	935.244565944367	737.038102727673	618.847020323710	830.610021185878	675.313666995113	665.674448584312	905.925545654590	606.752946577373	601.274139594984	884.857924891145	507.397853570629	631.123527916341	811.854817555612	417.558912386122	590.489541347199	719.287185673967	377.910755563794	668.485905912824	752.323162479655	291.305833477899	591.099073195533	563.693684309958	103.669394066237	561.715117706541	635.889780126209	51.213582312895	628.021547484516	751.537297834332	92.114414547885	606.929558950737	839.505524078789	41.692481659845	595.117070962193	
37	3.999714285714	954.374514014053	976.317202330419	592.188832435008	983.227186985247	957.761592224330	356.569053628621	1052.021586921488	1433.217584507508	485.225342252646	937.085650199081	1501.564477921201	640.847760961239	925.796099722203	1556.025472370481	452.112989324788	1012.702043319202	1497.657119033759	281.881797689538	939.289409287496	1177.087320382734	153.864573052238	1056.819754996314	915.686740614414	163.727538106859	837.389902539934	1184.026767170741	774.562778741562	1041.789341960551	979.773023959134	745.064604351993	1034.472635874864	756.140182861024	346.778321119800	982.205611573856	674.208813825502	298.861605199621	1056.561403395185	632.815453273339	375.388862890416	1079.773219413800	516.476505947353	385.474890311420	1039.137472417120	406.066724860767	393.752399308054	993.472676344347	336.257203570695	306.610785597614	1016.103397041034	282.104975734686	395.443544543732	901.091584471150	49.567732385293	379.508347204101	990.221018359818	28.096493285639	318.656410293554	1086.198693676164	89.624197583252	365.850645641020	1194.907380838158	45.625962453960	367.408161124664	938.955170158280	739.600374014642	617.686768127387	835.528222486786	676.574217528554	664.742289568272	912.999703496345	608.486196047592	602.034704161029	892.908802029946	508.083636910846	632.851396110103	817.222067856290	418.120217470806	591.880394177008	723.360129868601	380.705866528050	669.828218262061	753.869122473014	293.451573826193	592.328596144010	559.988636471198	112.812106354035	562.857844718467	630.184429995085	56.829177092245	628.407673770196	747.339025620560	93.515073265883	607.806713604243	832.717984969014	41.680057728078	595.001396311637	
38	4.016928571429	953.439820474374	978.141196148250	588.041185771526	984.186663079229	958.376270873651	353.109794466393	1052.768377851974	1434.060090774530	482.425801000623	936.301532350335	1502.589780000521	636.608387481519	927.126466724628	1557.208948663161	447.743134405478	1016.501354174647	1498.815047975972	278.823727610461	945.351465271473	1178.529913855833	148.876220040646	1064.321187807047	917.894790907254	160.141007788606	836.042792834023	1184.962917832138	769.572922785546	1039.854593339223	980.059126088435	740.759163147813	1033.332413147756	755.659799138150	343.831280685025	980.514582948244	674.326815302382	295.882963171360	1053.854100892373	632.121151410812	372.837113380623	1075.516813071044	515.628431476972	383.278677259375	1033.876151352047	405.545025059647	391.726216610286	988.107840591125	335.656168494464	305.066468645790	1009.962600193824	281.858101418478	394.135364409965	893.439490551433	49.613859728185	379.275484667381	982.576377296409	28.016648666818	318.486527072328	1078.555214996644	89.467859956007	365.733212855654	1187.308364065065	45.417673730941	367.347189259916	943.002010747516	742.403212970418	616.982596608043	841.111462463062	677.866283932917	664.334378228336	920.816552088236	610.464620285402	603.327270604694	901.876062100085	509.012882733834	635.114500096878	823.579392853764	419.015927866608	593.829374649240	728.492955977482	383.832776410617	671.787870198871	756.282489506869	296.028751594480	593.991773869585	557.151017571361	123.092621147210	564.388071643541	625.054993041403	63.358088179093	629.061470561865	743.688158954580	95.453126668086	608.939277421219	826.365266472812	41.687984230336	595.092682510323	
39	4.034142857143	952.346871587774	979.990926350670	584.047570026395	984.778323089636	959.027274111950	349.703549984668	1053.115018148705	1434.829665779221	479.648994828153	935.249027221331	1503.557328260351	632.435999208764	928.076667229886	1558.323181236160	443.494669552708	1019.817972516215	1499.942127243184	275.886576405673	951.404925568521	1179.922044619331	143.937440302766	1071.932189898191	920.134202901855	156.759854212725	834.710688497460	1185.741807487692	764.659310849060	1038.047925038589	980.284030541717	736.464174660610	1031.833302418738	755.218816526052	341.080551266757	978.564771051319	674.530029083681	293.104615462223	1050.874098793468	631.447182053206	370.404707441949	1070.947774806380	514.847737109054	381.076413306439	1028.421203534037	405.063289927844	389.719106311520	982.464658541207	335.105015950802	303.502435289486	1003.684060806974	281.631577025183	392.809607629896	885.716802226615	49.657479272344	379.037543401297	974.855738145148	27.932297801034	318.302787653494	1070.847582633902	89.311572371707	365.568230697163	1179.626635997089	45.219317997493	367.254385770660	947.293142928849	745.465101247006	616.590161841390	847.184827476956	679.307707041564	664.385480863604	929.140437539233	612.781331966625	605.046916433621	911.480419166728	510.332409567067	637.792032354305	830.739568710822	420.359827702827	596.230367919725	734.502030956390	387.400114108525	674.223264451242	759.502770285190	299.134186859265	595.997828746006	555.330482772489	134.488988027614	566.207435179993	620.599200142058	70.874008230307	629.949085423811	740.637296013003	98.033317043425	610.323936443176	820.516922467042	41.680813941735	595.457437383535	
